<?xml version="1.0" encoding="UTF-8"?>
<svg version="1.1" xmlns="http://www.w3.org/2000/svg" width="512" height="512">
<path d="M0 0 C5.23606005 2.96346454 12.95364239 7.38436467 14.9375 13.3359375 C15.040625 13.9753125 15.14375 14.6146875 15.25 15.2734375 C15.745 16.7584375 15.745 16.7584375 16.25 18.2734375 C16.55815188 20.8641959 16.80555036 23.42445204 17 26.0234375 C17.06832031 26.714375 17.13664062 27.4053125 17.20703125 28.1171875 C17.59272129 33.37839522 16.51535034 36.53254967 14.25 41.2734375 C13.91432119 44.24809781 13.91432119 44.24809781 15.640625 45.80859375 C16.25421875 46.31261719 16.8678125 46.81664062 17.5 47.3359375 C18.10328125 47.84253906 18.7065625 48.34914062 19.328125 48.87109375 C21.19797702 50.33957136 21.19797702 50.33957136 23.359375 51.20703125 C25.75074717 52.55588374 26.12551023 53.80961642 27.25 56.2734375 C28.81864072 58.19259191 28.81864072 58.19259191 30.625 59.9609375 C31.21023437 60.56292969 31.79546875 61.16492188 32.3984375 61.78515625 C34.1424991 63.41386785 34.1424991 63.41386785 36.3515625 63.73046875 C36.97804687 63.90964844 37.60453125 64.08882813 38.25 64.2734375 C39.234375 66.05859375 39.234375 66.05859375 40.25 68.2734375 C44.82192213 73.38484644 49.88572166 78.00952395 55.25 82.2734375 C57.76896049 81.1538995 59.64734655 79.95362198 61.8125 78.2109375 C64.25 76.2734375 64.25 76.2734375 67.25 75.2734375 C69.04205773 74.48265647 70.8336638 73.69085164 72.625 72.8984375 C89.78731882 65.80741955 107.73757322 64.82241783 125.25 71.2734375 C130.82426982 73.63509213 136.2545247 76.40399853 141.390625 79.609375 C143.27372385 80.50206081 143.27372385 80.50206081 145.2578125 79.56640625 C152.6308514 74.78115943 158.35831588 69.61096368 163.25 62.2734375 C164.12398438 62.09167969 164.12398438 62.09167969 165.015625 61.90625 C168.4080812 60.94544947 170.52048879 58.53891637 173 56.1484375 C174.06400911 55.13946895 175.12911563 54.13165643 176.1953125 53.125 C176.71383789 52.63418945 177.23236328 52.14337891 177.76660156 51.63769531 C179.72597224 49.83569345 181.79913155 48.18869461 183.875 46.5234375 C187.50572039 43.36924916 188.70728328 41.06743523 189.25 36.2734375 C188.51878594 33.884198 188.51878594 33.884198 187.25 32.2734375 C186.92 32.2734375 186.59 32.2734375 186.25 32.2734375 C185.77351766 24.45118571 185.95931146 18.0323482 190.25 11.2734375 C192.82699771 8.42442336 195.85056942 6.09533443 198.82421875 3.67578125 C199.29472656 3.21300781 199.76523437 2.75023438 200.25 2.2734375 C200.25 1.6134375 200.25 0.9534375 200.25 0.2734375 C200.95125 0.1496875 201.6525 0.0259375 202.375 -0.1015625 C205.27265312 -0.66386852 205.27265312 -0.66386852 208.0390625 -1.7421875 C216.04368357 -4.19615892 224.39721364 -3.47003527 231.96484375 0 C235.6963959 2.07946325 239.00241911 4.5069797 242.25 7.2734375 C243.425625 8.2634375 243.425625 8.2634375 244.625 9.2734375 C246.65484208 11.77170468 247.40909289 14.19011142 248.25 17.2734375 C247.92 17.6034375 247.59 17.9334375 247.25 18.2734375 C247.56898533 19.61027603 247.9050035 20.94307428 248.25 22.2734375 C248.7384462 29.78688934 249.22615872 39.19146573 244.25 45.2734375 C243.62351562 45.58539063 242.99703125 45.89734375 242.3515625 46.21875 C240.16171546 47.31774387 238.7177751 48.54113293 236.9375 50.2109375 C229.8662915 56.27409112 224.1569912 56.79469554 214.93359375 56.6484375 C210.68263491 56.21567817 207.57993678 55.14008745 203.88671875 53.05078125 C203.34660156 52.79425781 202.80648438 52.53773438 202.25 52.2734375 C200.09932794 53.14723765 200.09932794 53.14723765 198.875 55.2734375 C197.25 57.2734375 197.25 57.2734375 195.3125 57.7109375 C191.5406257 58.73963049 189.83068987 62.40240269 187.75 65.5234375 C185.94137344 67.63350183 184.87397445 67.61744389 182.25 68.2734375 C180.62168238 70.08305327 180.62168238 70.08305327 179.25 72.2734375 C177.8125 74.4609375 177.8125 74.4609375 176.25 76.2734375 C175.610625 76.3971875 174.97125 76.5209375 174.3125 76.6484375 C171.02473947 77.64472857 170.0739408 80.48052814 168.25 83.2734375 C166.93942115 83.98379326 165.60249286 84.64655212 164.25 85.2734375 C162.80946848 86.21714336 161.3924094 87.19757288 160 88.2109375 C159.29359375 88.71496094 158.5871875 89.21898437 157.859375 89.73828125 C157.32828125 90.24488281 156.7971875 90.75148438 156.25 91.2734375 C156.25 92.2634375 156.25 93.2534375 156.25 94.2734375 C157.24 94.6034375 158.23 94.9334375 159.25 95.2734375 C169.71361939 109.96842648 172.29631159 126.73349073 170.265625 144.2578125 C170.16910645 145.12905762 170.07258789 146.00030273 169.97314453 146.89794922 C169.73695473 149.02365742 169.49416315 151.14863037 169.25 153.2734375 C169.79742355 153.47531174 170.34484711 153.67718597 170.90885925 153.88517761 C176.66937426 156.00969399 182.42941978 158.13547961 188.18920898 160.26196289 C190.33134437 161.05264511 192.47359444 161.84301672 194.6159668 162.63305664 C196.69712909 163.40056716 198.77811477 164.16855673 200.85891724 164.93704224 C202.8890622 165.68654667 204.91971846 166.43466768 206.95089722 167.18136597 C211.14408321 168.72779443 215.32678349 170.28232869 219.46337891 171.97509766 C220.60597168 172.44093262 221.74856445 172.90676758 222.92578125 173.38671875 C223.85946533 173.78286377 224.79314941 174.17900879 225.75512695 174.5871582 C229.51593817 175.6216665 232.10990168 174.87515606 235.5 173.0859375 C237.12979644 172.01175348 238.75177005 170.92527053 240.35546875 169.8125 C247.91851836 164.61844583 253.98330179 162.23343396 263.25 163.2734375 C270.74037496 164.91944479 275.55174768 167.80869597 280.59375 173.56640625 C282.24094007 175.52634297 282.24094007 175.52634297 285.25 176.2734375 C286.37875042 181.53252179 286.78357371 186.726256 287.125 192.0859375 C287.25261719 193.52549805 287.25261719 193.52549805 287.3828125 194.99414062 C287.74206905 200.97494565 287.11923165 204.73008373 283.73876953 209.72143555 C282.05730807 211.47431362 280.42879116 212.23819397 278.25 213.2734375 C277.24357052 214.60192441 276.24307821 215.93494079 275.25 217.2734375 C274.26 217.6034375 273.27 217.9334375 272.25 218.2734375 C271.21875 218.7684375 270.1875 219.2634375 269.125 219.7734375 C260.61498708 223.36221122 252.81768241 222.43355471 244.25 219.2734375 C237.79231026 215.87414079 231.06008331 211.2424441 228.25 204.2734375 C228.0546875 201.6953125 228.0546875 201.6953125 228.125 199.0234375 C228.14304687 198.13140625 228.16109375 197.239375 228.1796875 196.3203125 C228.21449219 195.30710937 228.21449219 195.30710937 228.25 194.2734375 C227.59 194.2734375 226.93 194.2734375 226.25 194.2734375 C226.25 193.2834375 226.25 192.2934375 226.25 191.2734375 C223.83336014 190.35800211 221.41668768 189.4426529 219 188.52734375 C218.2429628 188.24057266 217.4859256 187.95380157 216.70594788 187.65834045 C212.52410915 186.0745619 208.3416193 184.49253514 204.15795898 182.91357422 C196.6494561 180.07900761 189.14336916 177.24062256 181.66015625 174.33984375 C180.57025391 173.92081787 179.48035156 173.50179199 178.35742188 173.07006836 C176.38037265 172.30933558 174.40620947 171.5410434 172.43554688 170.76391602 C167.8777965 169.02033299 164.22080646 167.79846753 159.25 168.2734375 C158.9096875 169.35625 158.9096875 169.35625 158.5625 170.4609375 C156.06248147 175.81812006 151.22565501 179.20606282 146.703125 182.84375 C144.98174415 184.32075449 144.98174415 184.32075449 144.25 187.2734375 C142.92637645 187.64345045 141.59005655 187.96825339 140.25 188.2734375 C138.39371403 189.33856544 136.56266071 190.44815181 134.75 191.5859375 C127.33608951 196.00524522 119.72392156 198.70476237 111.25 200.2734375 C111.25 200.9334375 111.25 201.5934375 111.25 202.2734375 C104.32 202.2734375 97.39 202.2734375 90.25 202.2734375 C90.58 204.9134375 90.91 207.5534375 91.25 210.2734375 C90.375 212.5859375 90.375 212.5859375 89.25 214.2734375 C88.47000624 216.61341878 87.82963766 218.88243216 87.25 221.2734375 C87.085 221.8715625 86.92 222.4696875 86.75 223.0859375 C86.16205255 225.50745725 86.16205255 225.50745725 85.75 228.9609375 C85.25 232.2734375 85.25 232.2734375 84.25 233.2734375 C84.02947585 234.90060598 83.81040085 236.52798239 83.59814453 238.15625 C82.81166446 242.93910776 81.31291279 247.5922458 79.97851562 252.24609375 C78.66630858 257.0128867 77.72355779 261.28175051 78.25 266.2734375 C80.95328583 269.05404218 80.95328583 269.05404218 84.25 271.2734375 C87.69543781 274.06703572 88.5302095 275.7944005 89.06030273 280.16894531 C89.42209446 284.18264498 89.55851533 288.18257089 89.625 292.2109375 C89.68107422 293.49387695 89.68107422 293.49387695 89.73828125 294.80273438 C89.823723 301.02574204 88.55135607 305.62017825 84.25 310.2734375 C82.22314453 311.40209961 82.22314453 311.40209961 80.25 312.2734375 C78.66257432 313.2669284 77.07949677 314.2673886 75.5 315.2734375 C67.28527572 320.17828747 60.6991499 320.98772449 51.25 319.2734375 C46.22638351 317.79973477 42.15144441 316.38290755 38.8125 312.2734375 C36.53151793 309.08062773 36.53151793 309.08062773 33.25 308.2734375 C28.3201582 301.34886203 26.45522378 293.40910991 27.54296875 285.01171875 C28.48278842 280.79457919 30.07303292 276.99242293 32.25 273.2734375 C32.91 272.9434375 33.57 272.6134375 34.25 272.2734375 C34.58 271.2834375 34.91 270.2934375 35.25 269.2734375 C37.09765625 268.23828125 37.09765625 268.23828125 39.25 267.2734375 C40.39911762 266.46558915 41.5448192 265.6528652 42.6875 264.8359375 C48.05313256 261.394602 54.06358469 260.43339037 60.25 259.2734375 C60.4665625 257.5409375 60.4665625 257.5409375 60.6875 255.7734375 C60.7803125 255.04640625 60.873125 254.319375 60.96875 253.5703125 C61.15092546 252.08254626 61.31854379 250.59289559 61.46875 249.1015625 C61.85776577 245.4059127 62.34978036 242.48005814 64.25 239.2734375 C65.02999376 236.93345622 65.67036234 234.66444284 66.25 232.2734375 C66.415 231.6959375 66.58 231.1184375 66.75 230.5234375 C67.33421531 228.11455751 67.33421531 228.11455751 67.5625 224.9609375 C68.32814103 218.26157845 70.43633972 211.75200072 72.25 205.2734375 C72.91 205.2734375 73.57 205.2734375 74.25 205.2734375 C74.48392158 201.73021353 74.38831093 198.65704063 73.25 195.2734375 C70.9536938 193.49448092 68.69903103 192.56521545 66.01171875 191.47265625 C59.18597806 188.50872076 53.76254177 183.04781824 48.7578125 177.65625 C47.18505294 176.02503613 47.18505294 176.02503613 44.25 175.2734375 C42.72679596 173.2114328 41.38382971 171.20733507 40.0625 169.0234375 C39.69447266 168.44980469 39.32644531 167.87617188 38.94726562 167.28515625 C36.81634428 163.81400794 35.78191553 161.355748 36.25 157.2734375 C30.444303 157.95877758 24.94920838 159.30566762 19.3125 160.8359375 C18.43787109 161.06990234 17.56324219 161.30386719 16.66210938 161.54492188 C14.52374275 162.11748999 12.38644097 162.69373345 10.25 163.2734375 C10.25 163.9334375 10.25 164.5934375 10.25 165.2734375 C9.25798584 165.23283203 8.26597168 165.19222656 7.24389648 165.15039062 C3.04044394 165.27989366 -0.64285223 166.09107475 -4.65234375 167.2421875 C-5.73619102 167.54183411 -5.73619102 167.54183411 -6.8419342 167.84753418 C-9.12622391 168.48112172 -11.406805 169.12704376 -13.6875 169.7734375 C-15.24521338 170.2078544 -16.8031543 170.64145629 -18.36132812 171.07421875 C-22.16024745 172.1312214 -25.95589376 173.19929247 -29.75 174.2734375 C-29.75 174.9334375 -29.75 175.5934375 -29.75 176.2734375 C-31.73 176.6034375 -33.71 176.9334375 -35.75 177.2734375 C-35.75 178.9234375 -35.75 180.5734375 -35.75 182.2734375 C-36.41 182.2734375 -37.07 182.2734375 -37.75 182.2734375 C-37.6675 183.3046875 -37.585 184.3359375 -37.5 185.3984375 C-37.7931259 189.94188901 -38.85460483 191.81504883 -41.75 195.2734375 C-43.07901861 195.9486647 -44.41263869 196.61488837 -45.75 197.2734375 C-46.8600219 198.22224193 -47.94335879 199.20302489 -49 200.2109375 C-55.39530262 205.74091376 -61.47809577 206.78156639 -69.84375 206.5703125 C-75.3125555 206.01167108 -79.93172219 203.85465776 -84.75 201.2734375 C-85.430625 200.9640625 -86.11125 200.6546875 -86.8125 200.3359375 C-88.94249291 199.16787687 -90.25626412 198.19395505 -91.75 196.2734375 C-92.4375 193.5859375 -92.4375 193.5859375 -92.75 191.2734375 C-93.74 190.9434375 -94.73 190.6134375 -95.75 190.2734375 C-97.01120665 180.65673678 -97.65394875 171.6306057 -94.75 162.2734375 C-94.46125 161.3246875 -94.1725 160.3759375 -93.875 159.3984375 C-92.48632431 156.77538342 -91.36333177 156.56095809 -88.75 155.2734375 C-87.6399781 154.32463307 -86.55664121 153.34385011 -85.5 152.3359375 C-78.91354562 146.65268889 -72.62049794 145.72031748 -64.0078125 145.91015625 C-59.12161131 146.45502041 -55.13844083 148.15647837 -50.75 150.2734375 C-49.85539062 150.60601562 -48.96078125 150.93859375 -48.0390625 151.28125 C-45.21581044 152.50498041 -44.94912693 153.53257595 -43.75 156.2734375 C-39.62316743 159.02465921 -36.49732441 159.56461875 -31.5987854 158.74830627 C-30.47515594 158.44408249 -29.35152649 158.1398587 -28.19384766 157.82641602 C-27.56874298 157.66075134 -26.94363831 157.49508667 -26.29959106 157.32440186 C-24.25114784 156.77848903 -22.20779782 156.21560084 -20.1640625 155.65234375 C-18.7380266 155.2687112 -17.3117012 154.88615336 -15.88510132 154.50462341 C-12.14379143 153.50096779 -8.40657808 152.48281791 -4.67004395 151.46154785 C-0.85141703 150.42062115 2.97092276 149.39352135 6.79296875 148.36523438 C14.28233743 146.34811162 21.7674303 144.31565444 29.25 142.2734375 C29.25 141.6134375 29.25 140.9534375 29.25 140.2734375 C29.91 140.2734375 30.57 140.2734375 31.25 140.2734375 C31.31058594 138.9946875 31.37117187 137.7159375 31.43359375 136.3984375 C31.51807216 134.6900964 31.60271641 132.98176349 31.6875 131.2734375 C31.72681641 130.43425781 31.76613281 129.59507812 31.80664062 128.73046875 C32.55063672 113.96500784 32.55063672 113.96500784 35.5625 107.7734375 C36.0059375 106.84917969 36.449375 105.92492187 36.90625 104.97265625 C37.3496875 104.08191406 37.793125 103.19117188 38.25 102.2734375 C38.6521875 101.45488281 39.054375 100.63632813 39.46875 99.79296875 C40.38356841 97.94699589 41.3148128 96.10917534 42.25 94.2734375 C40.35493898 91.64140831 38.33402663 89.13164336 36.25 86.6484375 C35.755 86.05804688 35.26 85.46765625 34.75 84.859375 C32.85175727 82.85237878 30.89115432 81.52162627 28.3125 80.5234375 C25.36607573 78.73772582 24.13435271 76.12851736 22.25 73.2734375 C19.94583768 71.19969141 17.96078164 69.58701763 15.125 68.3359375 C13.25 67.2734375 13.25 67.2734375 12 65.1484375 C9.4013358 60.87920346 6.26322215 57.27575331 2.25 54.2734375 C-1.03055826 53.99883689 -1.03055826 53.99883689 -3.75 55.2734375 C-10.61969766 57.56333672 -20.10003695 57.50546758 -26.80859375 54.53515625 C-30.41680282 52.19018336 -33.47052004 49.22276029 -36.55078125 46.234375 C-38.6774972 44.07797424 -38.6774972 44.07797424 -41.75 43.2734375 C-43.46852246 36.72157063 -44.04616809 30.39376448 -44.1875 23.6484375 C-44.22166016 22.84946045 -44.25582031 22.0504834 -44.29101562 21.22729492 C-44.33556887 15.22560217 -42.83880959 10.77065237 -38.75 6.2734375 C-36.734375 5.14428711 -36.734375 5.14428711 -34.75 4.2734375 C-32.1815667 2.74373868 -29.63620777 1.17939085 -27.08984375 -0.38671875 C-19.08661607 -4.96953527 -8.12013732 -3.7662479 0 0 Z M-41.75 12.2734375 C-40.75 14.2734375 -40.75 14.2734375 -40.75 14.2734375 Z M188.25 17.2734375 C189.25 20.2734375 189.25 20.2734375 189.25 20.2734375 Z M15.25 30.2734375 C16.25 34.2734375 16.25 34.2734375 16.25 34.2734375 Z M14.25 35.2734375 C15.25 37.2734375 15.25 37.2734375 15.25 37.2734375 Z M190.25 39.2734375 C191.25 41.2734375 191.25 41.2734375 191.25 41.2734375 Z M44.25 93.2734375 C45.25 95.2734375 45.25 95.2734375 45.25 95.2734375 Z M38.25 104.2734375 C39.25 106.2734375 39.25 106.2734375 39.25 106.2734375 Z M37.25 106.2734375 C38.25 108.2734375 38.25 108.2734375 38.25 108.2734375 Z M163.25 106.2734375 C164.25 108.2734375 164.25 108.2734375 164.25 108.2734375 Z M165.25 110.2734375 C166.25 112.2734375 166.25 112.2734375 166.25 112.2734375 Z M35.25 111.2734375 C36.25 113.2734375 36.25 113.2734375 36.25 113.2734375 Z M34.25 113.2734375 C35.25 116.2734375 35.25 116.2734375 35.25 116.2734375 Z M166.25 113.2734375 C167.25 116.2734375 167.25 116.2734375 167.25 116.2734375 Z M33.25 117.2734375 C34.25 120.2734375 34.25 120.2734375 34.25 120.2734375 Z M167.25 117.2734375 C168.25 120.2734375 168.25 120.2734375 168.25 120.2734375 Z M168.25 121.2734375 C168.25 128.8634375 168.25 136.4534375 168.25 144.2734375 C168.58 144.2734375 168.91 144.2734375 169.25 144.2734375 C170.04773542 136.44335754 170.39500285 129.07707229 169.25 121.2734375 C168.92 121.2734375 168.59 121.2734375 168.25 121.2734375 Z M32.25 136.2734375 C33.25 139.2734375 33.25 139.2734375 33.25 139.2734375 Z M167.25 144.2734375 C168.25 148.2734375 168.25 148.2734375 168.25 148.2734375 Z M166.25 149.2734375 C167.25 151.2734375 167.25 151.2734375 167.25 151.2734375 Z M-41.75 160.2734375 C-37.75 161.2734375 -37.75 161.2734375 -37.75 161.2734375 Z M-37.75 175.2734375 C-33.75 176.2734375 -33.75 176.2734375 -33.75 176.2734375 Z M-39.75 186.2734375 C-38.75 188.2734375 -38.75 188.2734375 -38.75 188.2734375 Z M285.25 199.2734375 C286.25 202.2734375 286.25 202.2734375 286.25 202.2734375 Z M229.25 201.2734375 C230.25 203.2734375 230.25 203.2734375 230.25 203.2734375 Z M89.25 208.2734375 C90.25 210.2734375 90.25 210.2734375 90.25 210.2734375 Z M72.25 209.2734375 C73.25 212.2734375 73.25 212.2734375 73.25 212.2734375 Z M71.25 213.2734375 C72.25 216.2734375 72.25 216.2734375 72.25 216.2734375 Z M69.25 220.2734375 C70.25 222.2734375 70.25 222.2734375 70.25 222.2734375 Z M68.25 224.2734375 C69.25 226.2734375 69.25 226.2734375 69.25 226.2734375 Z M84.25 227.2734375 C85.25 229.2734375 85.25 229.2734375 85.25 229.2734375 Z M81.25 237.2734375 C82.25 240.2734375 82.25 240.2734375 82.25 240.2734375 Z M80.25 241.2734375 C81.25 244.2734375 81.25 244.2734375 81.25 244.2734375 Z M63.25 243.2734375 C64.25 245.2734375 64.25 245.2734375 64.25 245.2734375 Z M79.25 246.2734375 C80.25 248.2734375 80.25 248.2734375 80.25 248.2734375 Z M62.25 247.2734375 C63.25 249.2734375 63.25 249.2734375 63.25 249.2734375 Z M78.25 250.2734375 C79.25 252.2734375 79.25 252.2734375 79.25 252.2734375 Z M75.25 260.2734375 C76.25 263.2734375 76.25 263.2734375 76.25 263.2734375 Z M30.25 279.2734375 C31.25 281.2734375 31.25 281.2734375 31.25 281.2734375 Z M29.25 282.2734375 C30.25 286.2734375 30.25 286.2734375 30.25 286.2734375 Z M28.25 287.2734375 C28.25 288.9234375 28.25 290.5734375 28.25 292.2734375 C28.58 292.2734375 28.91 292.2734375 29.25 292.2734375 C29.25 290.6234375 29.25 288.9734375 29.25 287.2734375 C28.92 287.2734375 28.59 287.2734375 28.25 287.2734375 Z M29.25 292.2734375 C29.25 293.9234375 29.25 295.5734375 29.25 297.2734375 C29.58 297.2734375 29.91 297.2734375 30.25 297.2734375 C30.25 295.6234375 30.25 293.9734375 30.25 292.2734375 C29.92 292.2734375 29.59 292.2734375 29.25 292.2734375 Z M30.25 298.2734375 C31.25 300.2734375 31.25 300.2734375 31.25 300.2734375 Z M86.25 302.2734375 C87.25 304.2734375 87.25 304.2734375 87.25 304.2734375 Z " fill="#F6F5FB" transform="translate(153.75,100.7265625)"/>
<path d="M0 0 C-1.17919035 3.18381395 -2.29700306 4.2303289 -5.0625 6.375 C-8.42471811 9.37953533 -8.60513201 10.65645215 -9 15 C-9.99 15.495 -9.99 15.495 -11 16 C-11 18.97 -11 21.94 -11 25 C-11.33 25 -11.66 25 -12 25 C-13.13244816 18.30378479 -13.50721257 13.47846267 -10.10546875 7.4609375 C-9 6 -9 6 -7 5 C-6.67 4.01 -6.34 3.02 -6 2 C-3.85412616 0.684787 -2.52986895 0 0 0 Z M-11 12 C-10 14 -10 14 -10 14 Z " fill="#8073CD" transform="translate(195,368)"/>
<path d="M0 0 C2 2 2 2 2 5 C2.66 5.33 3.32 5.66 4 6 C4.72693904 7.97888961 5.39816251 9.97954558 6 12 C5.01 12 4.02 12 3 12 C-1.06153846 5.72307692 -1.06153846 5.72307692 -0.75 2.0625 C-0.5025 1.381875 -0.255 0.70125 0 0 Z " fill="#9584D4" transform="translate(191,258)"/>
<path d="M0 0 C0.66 0 1.32 0 2 0 C0.43977363 3.82964655 -1.87555571 6.32190489 -5 9 C-6.32 9 -7.64 9 -9 9 C-8 6 -8 6 -6.1875 5.0625 C-5.465625 4.711875 -4.74375 4.36125 -4 4 C-3.29875 3.29875 -2.5975 2.5975 -1.875 1.875 C-1.25625 1.25625 -0.6375 0.6375 0 0 Z " fill="#CEC6E9" transform="translate(69,252)"/>
<path d="M0 0 C0.66 0 1.32 0 2 0 C0.4114658 4.28904235 -2.43127368 6.32345526 -6 9 C-6.66 9 -7.32 9 -8 9 C-7.00217242 5.64367085 -6.38142405 4.26048472 -3.4375 2.25 C-2.2309375 1.63125 -2.2309375 1.63125 -1 1 C-0.67 0.67 -0.34 0.34 0 0 Z " fill="#B7A8E2" transform="translate(120,104)"/>
<path d="M0 0 C0.66 0.33 1.32 0.66 2 1 C1.54917531 2.46067199 1.08906463 3.91848032 0.625 5.375 C0.36976563 6.18710938 0.11453125 6.99921875 -0.1484375 7.8359375 C-1 10 -1 10 -3 12 C-3.75 9.375 -3.75 9.375 -4 6 C-2.0625 2.625 -2.0625 2.625 0 0 Z " fill="#A8A0DA" transform="translate(346,109)"/>
<path d="M0 0 C-1.2843241 2.86503068 -2.41598787 5.15427705 -5 7 C-8.1875 7.1875 -8.1875 7.1875 -11 7 C-10.1646875 6.38125 -10.1646875 6.38125 -9.3125 5.75 C-7.63388406 4.47969605 -5.99217853 3.16014877 -4.375 1.8125 C-2 0 -2 0 0 0 Z " fill="#B6ADEA" transform="translate(396,270)"/>
<path d="M0 0 C-1.39332574 3.36720387 -2.9789286 4.9859524 -6 7 C-6.33 5.68 -6.66 4.36 -7 3 C-2.25 0 -2.25 0 0 0 Z " fill="#AEA7DE" transform="translate(195,368)"/>
<path d="M0 0 C0.33 0 0.66 0 1 0 C1 4.95 1 9.9 1 15 C0.67 15 0.34 15 0 15 C0 10.05 0 5.1 0 0 Z " fill="#E2E2FF" transform="translate(441,285)"/>
<path d="M0 0 C4.95 0 9.9 0 15 0 C15 0.33 15 0.66 15 1 C10.05 1 5.1 1 0 1 C0 0.67 0 0.34 0 0 Z " fill="#9E9EE5" transform="translate(247,166)"/>
<path d="M0 0 C4.95 0 9.9 0 15 0 C15 0.33 15 0.66 15 1 C10.05 1 5.1 1 0 1 C0 0.67 0 0.34 0 0 Z " fill="#B4A3E6" transform="translate(365,158)"/>
<path d="M0 0 C4.62 0 9.24 0 14 0 C14 0.33 14 0.66 14 1 C9.38 1 4.76 1 0 1 C0 0.67 0 0.34 0 0 Z " fill="#C8C8E9" transform="translate(133,158)"/>
<path d="M0 0 C0.33 0 0.66 0 1 0 C1 4.62 1 9.24 1 14 C0.67 14 0.34 14 0 14 C0 9.38 0 4.76 0 0 Z " fill="#D2CEE2" transform="translate(108,120)"/>
<path d="M0 0 C4.62 0 9.24 0 14 0 C14 0.33 14 0.66 14 1 C9.38 1 4.76 1 0 1 C0 0.67 0 0.34 0 0 Z " fill="#D1BFEF" transform="translate(132,96)"/>
<path d="M0 0 C1.64666203 0.1135629 3.29236082 0.24117381 4.9375 0.375 C5.85402344 0.44460938 6.77054687 0.51421875 7.71484375 0.5859375 C8.84599609 0.79089844 8.84599609 0.79089844 10 1 C10.33 1.66 10.66 2.32 11 3 C7.37 2.34 3.74 1.68 0 1 C0 0.67 0 0.34 0 0 Z " fill="#A39CD1" transform="translate(400,322)"/>
<path d="M0 0 C3.23475448 1.61737724 4.70572021 2.47629223 7 5 C6.67 5.66 6.34 6.32 6 7 C4.02 4.69 2.04 2.38 0 0 Z " fill="#A5A5EB" transform="translate(430,269)"/>
<path d="M0 0 C4.29 0 8.58 0 13 0 C13 0.33 13 0.66 13 1 C8.71 1 4.42 1 0 1 C0 0.67 0 0.34 0 0 Z " fill="#D9ADED" transform="translate(80,245)"/>
<path d="M0 0 C4.29 0 8.58 0 13 0 C13 0.33 13 0.66 13 1 C8.71 1 4.42 1 0 1 C0 0.67 0 0.34 0 0 Z " fill="#DED7FA" transform="translate(365,96)"/>
<path d="M0 0 C3.96 0 7.92 0 12 0 C12 0.33 12 0.66 12 1 C8.04 1 4.08 1 0 1 C0 0.67 0 0.34 0 0 Z " fill="#C8ABF4" transform="translate(81,308)"/>
<path d="M0 0 C0 0.33 0 0.66 0 1 C-3.3 1.33 -6.6 1.66 -10 2 C-6.3558226 -0.4294516 -4.28758728 -0.16179575 0 0 Z " fill="#BDB5F3" transform="translate(246,167)"/>
<path d="M0 0 C0.33 0 0.66 0 1 0 C1 3.3 1 6.6 1 10 C0.67 10 0.34 10 0 10 C0 6.7 0 3.4 0 0 Z " fill="#B690F2" transform="translate(55,271)"/>
<path d="M0 0 C3.3 0 6.6 0 10 0 C10 0.33 10 0.66 10 1 C6.7 1 3.4 1 0 1 C0 0.67 0 0.34 0 0 Z " fill="#887FD0" transform="translate(407,262)"/>
<path d="M0 0 C0.33 1.32 0.66 2.64 1 4 C-0.98 4 -2.96 4 -5 4 C-5 3.67 -5 3.34 -5 3 C-3.35 3 -1.7 3 0 3 C0 2.01 0 1.02 0 0 Z " fill="#BF9CF7" transform="translate(213,356)"/>
<path d="M0 0 C2.64 0 5.28 0 8 0 C8 0.33 8 0.66 8 1 C5.69 1.33 3.38 1.66 1 2 C0.67 1.34 0.34 0.68 0 0 Z " fill="#D2D2D9" transform="translate(411,323)"/>
<path d="M0 0 C1.65 1.65 3.3 3.3 5 5 C3.0625 4.1875 3.0625 4.1875 1 3 C0.67 2.01 0.34 1.02 0 0 Z " fill="#9B7F9B" transform="translate(202,279)"/>
<path d="M0 0 C0.33 0 0.66 0 1 0 C1 2.64 1 5.28 1 8 C0.67 8 0.34 8 0 8 C0 5.36 0 2.72 0 0 Z " fill="#C9BAE9" transform="translate(185,222)"/>
<path d="M0 0 C2.4375 0.375 2.4375 0.375 5 1 C5.33 1.66 5.66 2.32 6 3 C4.02 2.34 2.04 1.68 0 1 C0 0.67 0 0.34 0 0 Z " fill="#BFBFDF" transform="translate(152,155)"/>
<path d="M0 0 C0.33 0 0.66 0 1 0 C1 2.64 1 5.28 1 8 C0.67 8 0.34 8 0 8 C0 5.36 0 2.72 0 0 Z " fill="#A59AD7" transform="translate(403,123)"/>
<path d="M0 0 C0.33 0 0.66 0 1 0 C1 2.31 1 4.62 1 7 C0.67 7 0.34 7 0 7 C0 4.69 0 2.38 0 0 Z " fill="#CEB6F2" transform="translate(244,391)"/>
<path d="M0 0 C0.33 0 0.66 0 1 0 C1 2.31 1 4.62 1 7 C0.67 7 0.34 7 0 7 C0 4.69 0 2.38 0 0 Z " fill="#C8C8C8" transform="translate(184,230)"/>
<path d="M0 0 C0.66 0.33 1.32 0.66 2 1 C1.01 1.99 0.02 2.98 -1 4 C-1 1 -1 1 0 0 Z " fill="#C8C8EC" transform="translate(311,191)"/>
<path d="M0 0 C1.32 1.32 2.64 2.64 4 4 C2.68 3.34 1.36 2.68 0 2 C0 1.34 0 0.68 0 0 Z " fill="#9191DA" transform="translate(116,147)"/>
<path d="M0 0 C0.33 0 0.66 0 1 0 C1 2.31 1 4.62 1 7 C0.67 7 0.34 7 0 7 C0 4.69 0 2.38 0 0 Z " fill="#A4A4FF" transform="translate(171,123)"/>
<path d="M0 0 C0.33 0 0.66 0 1 0 C1 1.98 1 3.96 1 6 C0.67 6 0.34 6 0 6 C0 4.02 0 2.04 0 0 Z " fill="#DFD4F4" transform="translate(244,384)"/>
<path d="M0 0 C0.99 0.33 1.98 0.66 3 1 C1.35 1.33 -0.3 1.66 -2 2 C-1.34 1.34 -0.68 0.68 0 0 Z " fill="#A8A8F6" transform="translate(279,297)"/>
<path d="M0 0 C0.33 0 0.66 0 1 0 C1 1.98 1 3.96 1 6 C0.67 6 0.34 6 0 6 C0 4.02 0 2.04 0 0 Z " fill="#D4D4F0" transform="translate(381,295)"/>
<path d="M0 0 C2.475 0.495 2.475 0.495 5 1 C4.01 1.33 3.02 1.66 2 2 C1.34 1.34 0.68 0.68 0 0 Z " fill="#D1C6E9" transform="translate(359,285)"/>
<path d="M0 0 C1.98 0.99 1.98 0.99 4 2 C3.01 2 2.02 2 1 2 C0.67 1.34 0.34 0.68 0 0 Z " fill="#C9C9F4" transform="translate(201,175)"/>
<path d="M0 0 C1.98 0 3.96 0 6 0 C6 0.33 6 0.66 6 1 C4.02 1 2.04 1 0 1 C0 0.67 0 0.34 0 0 Z " fill="#DBDBFF" transform="translate(263,167)"/>
<path d="M0 0 C0.66 0.33 1.32 0.66 2 1 C0.02 1.99 0.02 1.99 -2 3 C-1.34 2.01 -0.68 1.02 0 0 Z " fill="#948AD4" transform="translate(326,155)"/>
<path d="M0 0 C1.65 0 3.3 0 5 0 C5 0.33 5 0.66 5 1 C3.35 1 1.7 1 0 1 C0 0.67 0 0.34 0 0 Z " fill="#9999FF" transform="translate(210,422)"/>
<path d="M0 0 C0.66 0.33 1.32 0.66 2 1 C0.68 1.33 -0.64 1.66 -2 2 C-1.34 1.34 -0.68 0.68 0 0 Z " fill="#AAAAFF" transform="translate(226,418)"/>
<path d="M0 0 C1.65 0 3.3 0 5 0 C5 0.33 5 0.66 5 1 C3.35 1 1.7 1 0 1 C0 0.67 0 0.34 0 0 Z " fill="#E8CEFF" transform="translate(265,301)"/>
<path d="M0 0 C1.65 0 3.3 0 5 0 C5 0.33 5 0.66 5 1 C3.35 1 1.7 1 0 1 C0 0.67 0 0.34 0 0 Z " fill="#A594FF" transform="translate(417,263)"/>
<path d="M0 0 C1.32 0.33 2.64 0.66 4 1 C3.01 1.33 2.02 1.66 1 2 C0.67 1.34 0.34 0.68 0 0 Z " fill="#EEEEFF" transform="translate(175,261)"/>
<path d="M0 0 C1.32 0 2.64 0 4 0 C3.67 0.66 3.34 1.32 3 2 C2.01 1.34 1.02 0.68 0 0 Z " fill="#E5C3EE" transform="translate(186,258)"/>
<path d="M0 0 C0.66 0.33 1.32 0.66 2 1 C1.01 1.66 0.02 2.32 -1 3 C-0.67 2.01 -0.34 1.02 0 0 Z " fill="#9999FF" transform="translate(350,104)"/>
<path d="M0 0 C4 1 4 1 4 1 Z " fill="#BFBFEF" transform="translate(217,421)"/>
<path d="M0 0 C4 1 4 1 4 1 Z " fill="#E9E9FF" transform="translate(205,421)"/>
<path d="M0 0 C4 1 4 1 4 1 Z " fill="#C98AFF" transform="translate(204,360)"/>
<path d="M0 0 C1 4 1 4 1 4 Z " fill="#CACADF" transform="translate(220,329)"/>
<path d="M0 0 C1 4 1 4 1 4 Z " fill="#CFBFEF" transform="translate(240,322)"/>
<path d="M0 0 C0.99 0.33 1.98 0.66 3 1 C2.01 1 1.02 1 0 1 C0 0.67 0 0.34 0 0 Z " fill="#FFBFFF" transform="translate(392,317)"/>
<path d="M0 0 C4 1 4 1 4 1 Z " fill="#8F8FBF" transform="translate(77,307)"/>
<path d="M0 0 C1 4 1 4 1 4 Z " fill="#AA94E9" transform="translate(227,302)"/>
<path d="M0 0 C4 1 4 1 4 1 Z " fill="#AF8FFF" transform="translate(270,300)"/>
<path d="M0 0 C1 4 1 4 1 4 Z " fill="#D2C5F2" transform="translate(116,283)"/>
<path d="M0 0 C4 1 4 1 4 1 Z " fill="#EFDFFF" transform="translate(131,273)"/>
<path d="M0 0 C4 1 4 1 4 1 Z " fill="#AAAAFF" transform="translate(142,270)"/>
<path d="M0 0 C4 1 4 1 4 1 Z " fill="#E9E9FF" transform="translate(149,268)"/>
<path d="M0 0 C4 1 4 1 4 1 Z " fill="#AAAABF" transform="translate(153,267)"/>
<path d="M0 0 C4 1 4 1 4 1 Z " fill="#E9AAFF" transform="translate(164,264)"/>
<path d="M0 0 C4 1 4 1 4 1 Z " fill="#EF8FFF" transform="translate(403,263)"/>
<path d="M0 0 C4 1 4 1 4 1 Z " fill="#AAAAFF" transform="translate(179,260)"/>
<path d="M0 0 C4 1 4 1 4 1 Z " fill="#AA94E9" transform="translate(119,258)"/>
<path d="M0 0 C4 1 4 1 4 1 Z " fill="#CACADF" transform="translate(123,257)"/>
<path d="M0 0 C4 1 4 1 4 1 Z " fill="#AA94E9" transform="translate(130,255)"/>
<path d="M0 0 C4 1 4 1 4 1 Z " fill="#E9E9FF" transform="translate(134,254)"/>
<path d="M0 0 C4 1 4 1 4 1 Z " fill="#CACAFF" transform="translate(138,253)"/>
<path d="M0 0 C4 1 4 1 4 1 Z " fill="#AAAAE9" transform="translate(145,251)"/>
<path d="M0 0 C4 1 4 1 4 1 Z " fill="#CACADF" transform="translate(149,250)"/>
<path d="M0 0 C4 1 4 1 4 1 Z " fill="#AA94E9" transform="translate(156,248)"/>
<path d="M0 0 C4 1 4 1 4 1 Z " fill="#E9AAFF" transform="translate(160,247)"/>
<path d="M0 0 C4 1 4 1 4 1 Z " fill="#CACADF" transform="translate(164,246)"/>
<path d="M0 0 C4 1 4 1 4 1 Z " fill="#AAAABF" transform="translate(93,246)"/>
<path d="M0 0 C4 1 4 1 4 1 Z " fill="#E9AAFF" transform="translate(171,244)"/>
<path d="M0 0 C4 1 4 1 4 1 Z " fill="#AAAAFF" transform="translate(175,243)"/>
<path d="M0 0 C4 1 4 1 4 1 Z " fill="#BFBFEF" transform="translate(179,242)"/>
<path d="M0 0 C4 1 4 1 4 1 Z " fill="#BFBFEF" transform="translate(269,168)"/>
<path d="M0 0 C4 1 4 1 4 1 Z " fill="#8F8FBF" transform="translate(129,157)"/>
<path d="M0 0 C0.99 0.33 1.98 0.66 3 1 C2.01 1 1.02 1 0 1 C0 0.67 0 0.34 0 0 Z " fill="#8F8FBF" transform="translate(122,153)"/>
<path d="M0 0 C0.66 0.33 1.32 0.66 2 1 C1.01 1 0.02 1 -1 1 C-0.67 0.67 -0.34 0.34 0 0 Z " fill="#9F7FDF" transform="translate(334,148)"/>
<path d="M0 0 C1 4 1 4 1 4 Z " fill="#CFAFEF" transform="translate(341,133)"/>
<path d="M0 0 C1 4 1 4 1 4 Z " fill="#A4A4E9" transform="translate(170,119)"/>
<path d="M0 0 C4 1 4 1 4 1 Z " fill="#E9E9FF" transform="translate(378,97)"/>
<path d="M0 0 C4 1 4 1 4 1 Z " fill="#E9AAFF" transform="translate(146,97)"/>
<path d="M0 0 C3 1 3 1 3 1 Z " fill="#E9E9E9" transform="translate(202,420)"/>
<path d="M0 0 C0.99 0.495 0.99 0.495 2 1 C1.01 1.495 1.01 1.495 0 2 C0 1.34 0 0.68 0 0 Z " fill="#7F7F7F" transform="translate(198,418)"/>
<path d="" fill="#E9E9E9" transform="translate(0,0)"/>
<path d="M0 0 C3 1 3 1 3 1 Z " fill="#8D8DFF" transform="translate(201,361)"/>
<path d="" fill="#BFBFFF" transform="translate(0,0)"/>
<path d="" fill="#B1B1CD" transform="translate(0,0)"/>
<path d="M0 0 C3 1 3 1 3 1 Z " fill="#CDCDE9" transform="translate(419,322)"/>
<path d="" fill="#CD9CE2" transform="translate(0,0)"/>
<path d="M0 0 C0.33 0.66 0.66 1.32 1 2 C0.34 1.67 -0.32 1.34 -1 1 C-0.67 0.67 -0.34 0.34 0 0 Z " fill="#AA8DAA" transform="translate(432,314)"/>
<path d="M0 0 C3 1 3 1 3 1 Z " fill="#BFBFBF" transform="translate(93,307)"/>
<path d="M0 0 C3 1 3 1 3 1 Z " fill="#E28DFF" transform="translate(96,306)"/>
<path d="" fill="#BFBFE2" transform="translate(0,0)"/>
<path d="M0 0 C3 1 3 1 3 1 Z " fill="#CDCDE2" transform="translate(274,299)"/>
<path d="M0 0 C3 1 3 1 3 1 Z " fill="#8D8D8D" transform="translate(377,292)"/>
<path d="M0 0 C3 1 3 1 3 1 Z " fill="#8D8DAA" transform="translate(364,287)"/>
<path d="M0 0 C3 1 3 1 3 1 Z " fill="#8D8DFF" transform="translate(356,284)"/>
<path d="" fill="#E2C6FF" transform="translate(0,0)"/>
<path d="M0 0 C3 1 3 1 3 1 Z " fill="#E9E9FF" transform="translate(351,282)"/>
<path d="M0 0 C3 1 3 1 3 1 Z " fill="#D4D4FF" transform="translate(346,280)"/>
<path d="M0 0 C3 1 3 1 3 1 Z " fill="#E97FE9" transform="translate(343,279)"/>
<path d="M0 0 C3 1 3 1 3 1 Z " fill="#8D8DFF" transform="translate(382,275)"/>
<path d="M0 0 C3 1 3 1 3 1 Z " fill="#CDB1CD" transform="translate(124,275)"/>
<path d="M0 0 C3 1 3 1 3 1 Z " fill="#B8B8D4" transform="translate(330,274)"/>
<path d="M0 0 C3 1 3 1 3 1 Z " fill="#BFAAE9" transform="translate(128,274)"/>
<path d="M0 0 C3 1 3 1 3 1 Z " fill="#9494FF" transform="translate(377,273)"/>
<path d="M0 0 C3 1 3 1 3 1 Z " fill="#E2E2FF" transform="translate(374,272)"/>
<path d="M0 0 C3 1 3 1 3 1 Z " fill="#C6AAE2" transform="translate(135,272)"/>
<path d="M0 0 C3 1 3 1 3 1 Z " fill="#E28DFF" transform="translate(322,271)"/>
<path d="M0 0 C3 1 3 1 3 1 Z " fill="#AAAABF" transform="translate(139,271)"/>
<path d="M0 0 C3 1 3 1 3 1 Z " fill="#9494FF" transform="translate(369,270)"/>
<path d="M0 0 C3 1 3 1 3 1 Z " fill="#E2E2FF" transform="translate(366,269)"/>
<path d="M0 0 C3 1 3 1 3 1 Z " fill="#E2C6E2" transform="translate(146,269)"/>
<path d="M0 0 C3 1 3 1 3 1 Z " fill="#D4D4D4" transform="translate(363,268)"/>
<path d="" fill="#D4D4FF" transform="translate(0,0)"/>
<path d="M0 0 C3 1 3 1 3 1 Z " fill="#E2E2FF" transform="translate(358,266)"/>
<path d="M0 0 C3 1 3 1 3 1 Z " fill="#E2AAE2" transform="translate(157,266)"/>
<path d="M0 0 C3 1 3 1 3 1 Z " fill="#D4B8FF" transform="translate(355,265)"/>
<path d="M0 0 C3 1 3 1 3 1 Z " fill="#7878CD" transform="translate(350,263)"/>
<path d="M0 0 C3 1 3 1 3 1 Z " fill="#E2C6E2" transform="translate(168,263)"/>
<path d="M0 0 C3 1 3 1 3 1 Z " fill="#D4B8D4" transform="translate(347,262)"/>
<path d="M0 0 C3 1 3 1 3 1 Z " fill="#BFBFFF" transform="translate(172,262)"/>
<path d="M0 0 C3 1 3 1 3 1 Z " fill="#CDCDCD" transform="translate(342,260)"/>
<path d="M0 0 C3 1 3 1 3 1 Z " fill="#E2E2FF" transform="translate(339,259)"/>
<path d="M0 0 C3 1 3 1 3 1 Z " fill="#B8B8FF" transform="translate(183,259)"/>
<path d="M0 0 C3 1 3 1 3 1 Z " fill="#A3A3FF" transform="translate(116,259)"/>
<path d="M0 0 C3 1 3 1 3 1 Z " fill="#8D8DE2" transform="translate(334,257)"/>
<path d="M0 0 C3 1 3 1 3 1 Z " fill="#E2E2FF" transform="translate(331,256)"/>
<path d="M0 0 C3 1 3 1 3 1 Z " fill="#B8B8FF" transform="translate(127,256)"/>
<path d="M0 0 C3 1 3 1 3 1 Z " fill="#8D8D8D" transform="translate(326,254)"/>
<path d="M0 0 C3 1 3 1 3 1 Z " fill="#E2E2FF" transform="translate(323,253)"/>
<path d="M0 0 C3 1 3 1 3 1 Z " fill="#C6AAE2" transform="translate(142,252)"/>
<path d="M0 0 C3 1 3 1 3 1 Z " fill="#B8B8FF" transform="translate(153,249)"/>
<path d="M0 0 C3 1 3 1 3 1 Z " fill="#FFE2FF" transform="translate(74,247)"/>
<path d="M0 0 C3 1 3 1 3 1 Z " fill="#E2C6E2" transform="translate(77,246)"/>
<path d="M0 0 C3 1 3 1 3 1 Z " fill="#D4B8FF" transform="translate(168,245)"/>
<path d="M0 0 C3 1 3 1 3 1 Z " fill="#8D8DFF" transform="translate(279,171)"/>
<path d="M0 0 C3 1 3 1 3 1 Z " fill="#B8B8FF" transform="translate(227,171)"/>
<path d="M0 0 C3 1 3 1 3 1 Z " fill="#D4D4FF" transform="translate(276,170)"/>
<path d="M0 0 C3 1 3 1 3 1 Z " fill="#D4D4FF" transform="translate(230,170)"/>
<path d="M0 0 C3 1 3 1 3 1 Z " fill="#E2C6E2" transform="translate(273,169)"/>
<path d="M0 0 C3 1 3 1 3 1 Z " fill="#9988EE" transform="translate(380,157)"/>
<path d="M0 0 C3 1 3 1 3 1 Z " fill="#D8D8D8" transform="translate(362,157)"/>
<path d="M0 0 C3 1 3 1 3 1 Z " fill="#6B6BD1" transform="translate(147,157)"/>
<path d="M0 0 C3 1 3 1 3 1 Z " fill="#946AAA" transform="translate(359,156)"/>
<path d="M0 0 C0.33 0.66 0.66 1.32 1 2 C0.34 1.67 -0.32 1.34 -1 1 C-0.67 0.67 -0.34 0.34 0 0 Z " fill="#AAAAFF" transform="translate(394,148)"/>
<path d="" fill="#CD9CCD" transform="translate(0,0)"/>
<path d="" fill="#BFAAFF" transform="translate(0,0)"/>
<path d="" fill="#E9E9FF" transform="translate(0,0)"/>
<path d="M0 0 C3 1 3 1 3 1 Z " fill="#E28DFF" transform="translate(359,98)"/>
<path d="M0 0 C3 1 3 1 3 1 Z " fill="#E2AAE2" transform="translate(362,97)"/>
<path d="M0 0 C3 1 3 1 3 1 Z " fill="#D4B8FF" transform="translate(129,97)"/>
<path d="M0 0 C2 1 2 1 2 1 Z " fill="#BFBFFF" transform="translate(222,420)"/>
<path d="M0 0 C2 1 2 1 2 1 Z " fill="#D4D4D4" transform="translate(200,419)"/>
<path d="M0 0 C2 1 2 1 2 1 Z " fill="#BFBFFF" transform="translate(228,417)"/>
<path d="M0 0 C2 1 2 1 2 1 Z " fill="#5F5FFF" transform="translate(231,415)"/>
<path d="" fill="#BFBFDF" transform="translate(0,0)"/>
<path d="" fill="#BFBFFF" transform="translate(0,0)"/>
<path d="M0 0 C2 1 2 1 2 1 Z " fill="#7F7FFF" transform="translate(193,366)"/>
<path d="M0 0 C2 1 2 1 2 1 Z " fill="#DFBFDF" transform="translate(199,362)"/>
<path d="M0 0 C2 1 2 1 2 1 Z " fill="#9F9FFF" transform="translate(422,321)"/>
<path d="M0 0 C2 1 2 1 2 1 Z " fill="#D4D4FF" transform="translate(398,321)"/>
<path d="M0 0 C2 1 2 1 2 1 Z " fill="#BFBFBF" transform="translate(424,320)"/>
<path d="M0 0 C2 1 2 1 2 1 Z " fill="#FF55FF" transform="translate(396,320)"/>
<path d="M0 0 C2 1 2 1 2 1 Z " fill="#DFDFFF" transform="translate(75,306)"/>
<path d="M0 0 C2 1 2 1 2 1 Z " fill="#FFFFFF" transform="translate(99,305)"/>
<path d="M0 0 C2 1 2 1 2 1 Z " fill="#DFDFFF" transform="translate(73,305)"/>
<path d="M0 0 C2 1 2 1 2 1 Z " fill="#5F405F" transform="translate(71,304)"/>
<path d="M0 0 C2 1 2 1 2 1 Z " fill="#7F7FFF" transform="translate(102,303)"/>
<path d="M0 0 C2 1 2 1 2 1 Z " fill="#DFDFDF" transform="translate(282,296)"/>
<path d="M0 0 C2 1 2 1 2 1 Z " fill="#5555FF" transform="translate(224,296)"/>
<path d="M0 0 C2 1 2 1 2 1 Z " fill="#DF5FFF" transform="translate(284,295)"/>
<path d="M0 0 C2 1 2 1 2 1 Z " fill="#5F40DF" transform="translate(222,295)"/>
<path d="M0 0 C2 1 2 1 2 1 Z " fill="#5F5F5F" transform="translate(286,294)"/>
<path d="" fill="#BFBFFF" transform="translate(0,0)"/>
<path d="M0 0 C2 1 2 1 2 1 Z " fill="#FFFFFF" transform="translate(289,292)"/>
<path d="M0 0 C2 1 2 1 2 1 Z " fill="#FFFFFF" transform="translate(217,292)"/>
<path d="M0 0 C2 1 2 1 2 1 Z " fill="#9F9FFF" transform="translate(375,291)"/>
<path d="M0 0 C2 1 2 1 2 1 Z " fill="#BFBFDF" transform="translate(372,290)"/>
<path d="M0 0 C2 1 2 1 2 1 Z " fill="#D4D4FF" transform="translate(292,290)"/>
<path d="M0 0 C2 1 2 1 2 1 Z " fill="#BFBFFF" transform="translate(214,290)"/>
<path d="M0 0 C2 1 2 1 2 1 Z " fill="#9F9FFF" transform="translate(370,289)"/>
<path d="M0 0 C2 1 2 1 2 1 Z " fill="#DFDFDF" transform="translate(367,288)"/>
<path d="M0 0 C2 1 2 1 2 1 Z " fill="#7F7FFF" transform="translate(211,288)"/>
<path d="" fill="#AAAAD4" transform="translate(0,0)"/>
<path d="" fill="#B4B4FF" transform="translate(0,0)"/>
<path d="M0 0 C2 1 2 1 2 1 Z " fill="#BFBFFF" transform="translate(354,283)"/>
<path d="M0 0 C2 1 2 1 2 1 Z " fill="#D4D4FF" transform="translate(349,281)"/>
<path d="M0 0 C2 1 2 1 2 1 Z " fill="#D4D4FF" transform="translate(341,278)"/>
<path d="M0 0 C2 1 2 1 2 1 Z " fill="#9F80DF" transform="translate(338,277)"/>
<path d="M0 0 C2 1 2 1 2 1 Z " fill="#D4D4FF" transform="translate(336,276)"/>
<path d="M0 0 C2 1 2 1 2 1 Z " fill="#BFBFFF" transform="translate(333,275)"/>
<path d="M0 0 C2 1 2 1 2 1 Z " fill="#9F9FBF" transform="translate(380,274)"/>
<path d="M0 0 C2 1 2 1 2 1 Z " fill="#BFBFDF" transform="translate(328,273)"/>
<path d="M0 0 C2 1 2 1 2 1 Z " fill="#AAAAD4" transform="translate(325,272)"/>
<path d="M0 0 C2 1 2 1 2 1 Z " fill="#9F9FDF" transform="translate(372,271)"/>
<path d="M0 0 C2 1 2 1 2 1 Z " fill="#D4D4FF" transform="translate(320,270)"/>
<path d="M0 0 C2 1 2 1 2 1 Z " fill="#BF95FF" transform="translate(317,269)"/>
<path d="M0 0 C2 1 2 1 2 1 Z " fill="#FFFFFF" transform="translate(394,268)"/>
<path d="M0 0 C2 1 2 1 2 1 Z " fill="#DF9FFF" transform="translate(361,267)"/>
<path d="M0 0 C2 1 2 1 2 1 Z " fill="#DF5FDF" transform="translate(426,266)"/>
<path d="M0 0 C2 1 2 1 2 1 Z " fill="#FFFFFF" transform="translate(397,266)"/>
<path d="" fill="#D4D4FF" transform="translate(0,0)"/>
<path d="M0 0 C2 1 2 1 2 1 Z " fill="#9F9FFF" transform="translate(424,265)"/>
<path d="M0 0 C2 1 2 1 2 1 Z " fill="#BFBFFF" transform="translate(399,265)"/>
<path d="M0 0 C2 1 2 1 2 1 Z " fill="#BFBFBF" transform="translate(422,264)"/>
<path d="M0 0 C2 1 2 1 2 1 Z " fill="#9F9FDF" transform="translate(401,264)"/>
<path d="M0 0 C2 1 2 1 2 1 Z " fill="#9F9FDF" transform="translate(353,264)"/>
<path d="" fill="#FFD4FF" transform="translate(0,0)"/>
<path d="M0 0 C2 1 2 1 2 1 Z " fill="#9F9FDF" transform="translate(345,261)"/>
<path d="M0 0 C2 1 2 1 2 1 Z " fill="#BFBFFF" transform="translate(337,258)"/>
<path d="M0 0 C2 1 2 1 2 1 Z " fill="#BF95FF" transform="translate(329,255)"/>
<path d="M0 0 C2 1 2 1 2 1 Z " fill="#BFBFBF" transform="translate(69,250)"/>
<path d="M0 0 C2 1 2 1 2 1 Z " fill="#55557F" transform="translate(101,249)"/>
<path d="M0 0 C2 1 2 1 2 1 Z " fill="#BFBFBF" transform="translate(99,248)"/>
<path d="M0 0 C2 1 2 1 2 1 Z " fill="#D455FF" transform="translate(72,248)"/>
<path d="M0 0 C2 1 2 1 2 1 Z " fill="#BFBFFF" transform="translate(97,247)"/>
<path d="M0 0 C2 1 2 1 2 1 Z " fill="#DFBFFF" transform="translate(209,182)"/>
<path d="M0 0 C2 1 2 1 2 1 Z " fill="#BFBFFF" transform="translate(294,179)"/>
<path d="M0 0 C2 1 2 1 2 1 Z " fill="#5F5FDF" transform="translate(213,179)"/>
<path d="M0 0 C2 1 2 1 2 1 Z " fill="#BFBFFF" transform="translate(291,177)"/>
<path d="M0 0 C2 1 2 1 2 1 Z " fill="#5F5FFF" transform="translate(216,177)"/>
<path d="M0 0 C2 1 2 1 2 1 Z " fill="#DFDFDF" transform="translate(288,175)"/>
<path d="M0 0 C2 1 2 1 2 1 Z " fill="#BFBFBF" transform="translate(286,174)"/>
<path d="M0 0 C2 1 2 1 2 1 Z " fill="#7F7FFF" transform="translate(221,174)"/>
<path d="M0 0 C2 1 2 1 2 1 Z " fill="#FFD4FF" transform="translate(284,173)"/>
<path d="M0 0 C2 1 2 1 2 1 Z " fill="#BFBFBF" transform="translate(223,173)"/>
<path d="M0 0 C2 1 2 1 2 1 Z " fill="#FF7FFF" transform="translate(307,172)"/>
<path d="M0 0 C2 1 2 1 2 1 Z " fill="#FFD4FF" transform="translate(282,172)"/>
<path d="M0 0 C2 1 2 1 2 1 Z " fill="#BFBFBF" transform="translate(225,172)"/>
<path d="M0 0 C2 1 2 1 2 1 Z " fill="#D4D4D4" transform="translate(233,169)"/>
<path d="M0 0 C2 1 2 1 2 1 Z " fill="#9F9FBF" transform="translate(383,156)"/>
<path d="M0 0 C2 1 2 1 2 1 Z " fill="#DFDFFF" transform="translate(150,156)"/>
<path d="M0 0 C2 1 2 1 2 1 Z " fill="#A6A6E5" transform="translate(127,156)"/>
<path d="M0 0 C2 1 2 1 2 1 Z " fill="#DFDFFF" transform="translate(385,155)"/>
<path d="M0 0 C2 1 2 1 2 1 Z " fill="#FFFFFF" transform="translate(125,155)"/>
<path d="M0 0 C2 1 2 1 2 1 Z " fill="#7F7FFF" transform="translate(356,154)"/>
<path d="M0 0 C2 1 2 1 2 1 Z " fill="#BFBFBF" transform="translate(388,153)"/>
<path d="M0 0 C2 1 2 1 2 1 Z " fill="#B4B4FF" transform="translate(354,153)"/>
<path d="" fill="#7F7FBF" transform="translate(0,0)"/>
<path d="" fill="#AAAAD4" transform="translate(0,0)"/>
<path d="" fill="#B4B4FF" transform="translate(0,0)"/>
<path d="" fill="#D4D4D4" transform="translate(0,0)"/>
<path d="" fill="#FFBFFF" transform="translate(0,0)"/>
<path d="M0 0 C2 1 2 1 2 1 Z " fill="#7F7FFF" transform="translate(157,102)"/>
<path d="M0 0 C2 1 2 1 2 1 Z " fill="#FF7FFF" transform="translate(120,102)"/>
<path d="M0 0 C2 1 2 1 2 1 Z " fill="#7F7FFF" transform="translate(388,101)"/>
<path d="M0 0 C2 1 2 1 2 1 Z " fill="#BFBFFF" transform="translate(386,100)"/>
<path d="M0 0 C2 1 2 1 2 1 Z " fill="#FFFFFF" transform="translate(154,100)"/>
<path d="M0 0 C2 1 2 1 2 1 Z " fill="#BFBFFF" transform="translate(123,100)"/>
<path d="M0 0 C2 1 2 1 2 1 Z " fill="#D4D4D4" transform="translate(384,99)"/>
<path d="M0 0 C2 1 2 1 2 1 Z " fill="#5555FF" transform="translate(357,99)"/>
<path d="M0 0 C2 1 2 1 2 1 Z " fill="#BFBFFF" transform="translate(152,99)"/>
<path d="M0 0 C2 1 2 1 2 1 Z " fill="#D4D4FF" transform="translate(125,99)"/>
<path d="M0 0 C2 1 2 1 2 1 Z " fill="#D4D4D4" transform="translate(382,98)"/>
<path d="M0 0 C2 1 2 1 2 1 Z " fill="#BFBFFF" transform="translate(150,98)"/>
<path d="M0 0 C2 1 2 1 2 1 Z " fill="#D4D4FF" transform="translate(127,98)"/>
<path d="" fill="#FFAAFF" transform="translate(0,0)"/>
<path d="" fill="#AAAAFF" transform="translate(0,0)"/>
<path d="" fill="#AAAAFF" transform="translate(0,0)"/>
<path d="" fill="#808080" transform="translate(0,0)"/>
<path d="" fill="#BFBFFF" transform="translate(0,0)"/>
<path d="" fill="#8080FF" transform="translate(0,0)"/>
<path d="" fill="#BFBFFF" transform="translate(0,0)"/>
<path d="" fill="#8080FF" transform="translate(0,0)"/>
<path d="" fill="#BF80BF" transform="translate(0,0)"/>
<path d="" fill="#8080FF" transform="translate(0,0)"/>
<path d="" fill="#80BFBF" transform="translate(0,0)"/>
<path d="" fill="#AAAAFF" transform="translate(0,0)"/>
<path d="" fill="#AAAAFF" transform="translate(0,0)"/>
<path d="" fill="#FFAAFF" transform="translate(0,0)"/>
<path d="" fill="#BFBFBF" transform="translate(0,0)"/>
<path d="" fill="#BFBFFF" transform="translate(0,0)"/>
<path d="" fill="#AA55AA" transform="translate(0,0)"/>
<path d="" fill="#BFBFFF" transform="translate(0,0)"/>
<path d="" fill="#8080FF" transform="translate(0,0)"/>
<path d="" fill="#FFFFFF" transform="translate(0,0)"/>
<path d="" fill="#808080" transform="translate(0,0)"/>
<path d="" fill="#AAAAAA" transform="translate(0,0)"/>
<path d="" fill="#FFAAFF" transform="translate(0,0)"/>
<path d="" fill="#8080FF" transform="translate(0,0)"/>
<path d="" fill="#FFFFFF" transform="translate(0,0)"/>
<path d="" fill="#BFBFFF" transform="translate(0,0)"/>
<path d="" fill="#FF80FF" transform="translate(0,0)"/>
<path d="" fill="#AAAAFF" transform="translate(0,0)"/>
<path d="" fill="#FFFFFF" transform="translate(0,0)"/>
<path d="" fill="#8080FF" transform="translate(0,0)"/>
<path d="" fill="#AAAAFF" transform="translate(0,0)"/>
<path d="" fill="#AAAAFF" transform="translate(0,0)"/>
<path d="" fill="#BFBFFF" transform="translate(0,0)"/>
<path d="" fill="#BFBFFF" transform="translate(0,0)"/>
<path d="" fill="#AAAAFF" transform="translate(0,0)"/>
<path d="" fill="#808080" transform="translate(0,0)"/>
<path d="" fill="#AAAAFF" transform="translate(0,0)"/>
<path d="" fill="#BFBFBF" transform="translate(0,0)"/>
<path d="" fill="#BF80BF" transform="translate(0,0)"/>
<path d="" fill="#FFFFFF" transform="translate(0,0)"/>
<path d="" fill="#BFBFBF" transform="translate(0,0)"/>
<path d="" fill="#FFFFFF" transform="translate(0,0)"/>
<path d="" fill="#BF80FF" transform="translate(0,0)"/>
<path d="" fill="#8080BF" transform="translate(0,0)"/>
<path d="" fill="#BF80BF" transform="translate(0,0)"/>
<path d="" fill="#FFFFFF" transform="translate(0,0)"/>
<path d="" fill="#AAAAFF" transform="translate(0,0)"/>
<path d="" fill="#AAAAFF" transform="translate(0,0)"/>
<path d="" fill="#BFBFBF" transform="translate(0,0)"/>
<path d="" fill="#BFBFBF" transform="translate(0,0)"/>
<path d="" fill="#AAAAAA" transform="translate(0,0)"/>
<path d="" fill="#BFBFBF" transform="translate(0,0)"/>
<path d="" fill="#BFBFBF" transform="translate(0,0)"/>
<path d="" fill="#5555AA" transform="translate(0,0)"/>
<path d="" fill="#AAAAFF" transform="translate(0,0)"/>
<path d="" fill="#FFFFFF" transform="translate(0,0)"/>
<path d="" fill="#BFBFFF" transform="translate(0,0)"/>
<path d="" fill="#AAAAFF" transform="translate(0,0)"/>
<path d="" fill="#FFBFFF" transform="translate(0,0)"/>
<path d="" fill="#AAAAFF" transform="translate(0,0)"/>
<path d="" fill="#8080BF" transform="translate(0,0)"/>
<path d="" fill="#8080FF" transform="translate(0,0)"/>
<path d="" fill="#8080BF" transform="translate(0,0)"/>
<path d="" fill="#5555AA" transform="translate(0,0)"/>
<path d="" fill="#BFBFFF" transform="translate(0,0)"/>
<path d="" fill="#FFFFFF" transform="translate(0,0)"/>
<path d="" fill="#FF80FF" transform="translate(0,0)"/>
<path d="" fill="#AAAAFF" transform="translate(0,0)"/>
<path d="" fill="#8080FF" transform="translate(0,0)"/>
<path d="" fill="#AA55FF" transform="translate(0,0)"/>
<path d="" fill="#8080FF" transform="translate(0,0)"/>
<path d="" fill="#BFBFBF" transform="translate(0,0)"/>
<path d="" fill="#8080FF" transform="translate(0,0)"/>
<path d="" fill="#FFAAFF" transform="translate(0,0)"/>
<path d="" fill="#80BFBF" transform="translate(0,0)"/>
<path d="" fill="#FFAAFF" transform="translate(0,0)"/>
<path d="" fill="#BFBFFF" transform="translate(0,0)"/>
<path d="" fill="#CC99FF" transform="translate(0,0)"/>
<path d="" fill="#BFBFFF" transform="translate(0,0)"/>
<path d="" fill="#FFFFFF" transform="translate(0,0)"/>
<path d="" fill="#BFBFBF" transform="translate(0,0)"/>
<path d="" fill="#BFBFBF" transform="translate(0,0)"/>
<path d="" fill="#AAAAFF" transform="translate(0,0)"/>
<path d="" fill="#FF80FF" transform="translate(0,0)"/>
<path d="" fill="#AAAAFF" transform="translate(0,0)"/>
<path d="" fill="#8080FF" transform="translate(0,0)"/>
<path d="" fill="#8080FF" transform="translate(0,0)"/>
<path d="" fill="#AAAAAA" transform="translate(0,0)"/>
<path d="" fill="#AAAAAA" transform="translate(0,0)"/>
<path d="" fill="#8080BF" transform="translate(0,0)"/>
<path d="" fill="#BFBFBF" transform="translate(0,0)"/>
<path d="" fill="#BFBFFF" transform="translate(0,0)"/>
<path d="" fill="#BF80BF" transform="translate(0,0)"/>
<path d="" fill="#BFBFFF" transform="translate(0,0)"/>
<path d="" fill="#BFBFBF" transform="translate(0,0)"/>
<path d="" fill="#BFBFFF" transform="translate(0,0)"/>
<path d="" fill="#9999CC" transform="translate(0,0)"/>
<path d="" fill="#CC99CC" transform="translate(0,0)"/>
<path d="" fill="#FFFFFF" transform="translate(0,0)"/>
<path d="" fill="#AAAAFF" transform="translate(0,0)"/>
<path d="" fill="#8080BF" transform="translate(0,0)"/>
<path d="" fill="#AAAAAA" transform="translate(0,0)"/>
<path d="" fill="#AAAAFF" transform="translate(0,0)"/>
<path d="" fill="#8080FF" transform="translate(0,0)"/>
<path d="" fill="#AAAAAA" transform="translate(0,0)"/>
<path d="" fill="#AAAAFF" transform="translate(0,0)"/>
<path d="" fill="#FF80FF" transform="translate(0,0)"/>
<path d="" fill="#9999CC" transform="translate(0,0)"/>
<path d="" fill="#FFBFFF" transform="translate(0,0)"/>
<path d="" fill="#BFBFBF" transform="translate(0,0)"/>
<path d="" fill="#FFFFFF" transform="translate(0,0)"/>
<path d="" fill="#8080FF" transform="translate(0,0)"/>
<path d="" fill="#BFBFFF" transform="translate(0,0)"/>
<path d="" fill="#BFBFFF" transform="translate(0,0)"/>
<path d="" fill="#8080FF" transform="translate(0,0)"/>
<path d="" fill="#AAAAFF" transform="translate(0,0)"/>
<path d="" fill="#FF80FF" transform="translate(0,0)"/>
<path d="" fill="#AAAAFF" transform="translate(0,0)"/>
<path d="" fill="#AAAAFF" transform="translate(0,0)"/>
<path d="" fill="#AAAAAA" transform="translate(0,0)"/>
<path d="" fill="#AA55AA" transform="translate(0,0)"/>
<path d="" fill="#BFFFFF" transform="translate(0,0)"/>
<path d="" fill="#BFBFFF" transform="translate(0,0)"/>
<path d="" fill="#808080" transform="translate(0,0)"/>
<path d="" fill="#FFFFFF" transform="translate(0,0)"/>
<path d="" fill="#BFBFFF" transform="translate(0,0)"/>
<path d="" fill="#FF80FF" transform="translate(0,0)"/>
<path d="" fill="#BFBFFF" transform="translate(0,0)"/>
<path d="" fill="#BFBFFF" transform="translate(0,0)"/>
<path d="" fill="#AAAAFF" transform="translate(0,0)"/>
<path d="" fill="#FFFFFF" transform="translate(0,0)"/>
<path d="" fill="#BFBFFF" transform="translate(0,0)"/>
<path d="" fill="#BFBFFF" transform="translate(0,0)"/>
<path d="" fill="#BFBFBF" transform="translate(0,0)"/>
<path d="" fill="#BFBFBF" transform="translate(0,0)"/>
<path d="" fill="#BF80BF" transform="translate(0,0)"/>
<path d="" fill="#FFBFFF" transform="translate(0,0)"/>
<path d="" fill="#9999CC" transform="translate(0,0)"/>
<path d="" fill="#BFBFBF" transform="translate(0,0)"/>
<path d="" fill="#AAAAFF" transform="translate(0,0)"/>
<path d="" fill="#FFFFFF" transform="translate(0,0)"/>
<path d="" fill="#AAAAFF" transform="translate(0,0)"/>
<path d="" fill="#AAAAFF" transform="translate(0,0)"/>
<path d="" fill="#8080BF" transform="translate(0,0)"/>
<path d="" fill="#AA55AA" transform="translate(0,0)"/>
<path d="" fill="#AA55AA" transform="translate(0,0)"/>
<path d="" fill="#FF80FF" transform="translate(0,0)"/>
<path d="" fill="#8080FF" transform="translate(0,0)"/>
<path d="" fill="#AAAAFF" transform="translate(0,0)"/>
<path d="" fill="#8080FF" transform="translate(0,0)"/>
<path d="" fill="#FFFFBF" transform="translate(0,0)"/>
<path d="" fill="#8080BF" transform="translate(0,0)"/>
<path d="" fill="#AAAAFF" transform="translate(0,0)"/>
<path d="" fill="#FFBFFF" transform="translate(0,0)"/>
<path d="" fill="#FFFFFF" transform="translate(0,0)"/>
<path d="" fill="#BFBFFF" transform="translate(0,0)"/>
<path d="" fill="#8080BF" transform="translate(0,0)"/>
<path d="" fill="#BFBFFF" transform="translate(0,0)"/>
<path d="" fill="#BFBFFF" transform="translate(0,0)"/>
<path d="" fill="#BFBFFF" transform="translate(0,0)"/>
<path d="" fill="#CCCCFF" transform="translate(0,0)"/>
<path d="" fill="#AAAAFF" transform="translate(0,0)"/>
<path d="" fill="#BFBFFF" transform="translate(0,0)"/>
<path d="" fill="#CCCCCC" transform="translate(0,0)"/>
<path d="" fill="#BFBFFF" transform="translate(0,0)"/>
<path d="" fill="#AAAAFF" transform="translate(0,0)"/>
<path d="" fill="#8080FF" transform="translate(0,0)"/>
<path d="" fill="#BFBFFF" transform="translate(0,0)"/>
<path d="" fill="#BFBFBF" transform="translate(0,0)"/>
<path d="" fill="#FFFFFF" transform="translate(0,0)"/>
<path d="" fill="#AAAAFF" transform="translate(0,0)"/>
<path d="" fill="#9999CC" transform="translate(0,0)"/>
<path d="" fill="#FFAAFF" transform="translate(0,0)"/>
<path d="" fill="#AAAAFF" transform="translate(0,0)"/>
<path d="" fill="#FF80FF" transform="translate(0,0)"/>
<path d="" fill="#FF80FF" transform="translate(0,0)"/>
<path d="" fill="#FFAAFF" transform="translate(0,0)"/>
<path d="" fill="#BFBFBF" transform="translate(0,0)"/>
<path d="" fill="#8080FF" transform="translate(0,0)"/>
<path d="" fill="#BFBFBF" transform="translate(0,0)"/>
<path d="" fill="#AAAAAA" transform="translate(0,0)"/>
<path d="" fill="#8080BF" transform="translate(0,0)"/>
<path d="" fill="#BFBFBF" transform="translate(0,0)"/>
<path d="" fill="#FFFFFF" transform="translate(0,0)"/>
<path d="" fill="#FFFFFF" transform="translate(0,0)"/>
<path d="" fill="#AAFFFF" transform="translate(0,0)"/>
<path d="" fill="#FFFFFF" transform="translate(0,0)"/>
<path d="" fill="#8080FF" transform="translate(0,0)"/>
<path d="" fill="#BFBFFF" transform="translate(0,0)"/>
<path d="" fill="#FFBFFF" transform="translate(0,0)"/>
<path d="" fill="#BFBFBF" transform="translate(0,0)"/>
<path d="" fill="#9999CC" transform="translate(0,0)"/>
<path d="" fill="#FFFFFF" transform="translate(0,0)"/>
<path d="" fill="#BFBFFF" transform="translate(0,0)"/>
<path d="" fill="#AAAAFF" transform="translate(0,0)"/>
<path d="" fill="#FFBFFF" transform="translate(0,0)"/>
<path d="" fill="#8080BF" transform="translate(0,0)"/>
<path d="" fill="#BFBFFF" transform="translate(0,0)"/>
<path d="" fill="#BFBFFF" transform="translate(0,0)"/>
<path d="" fill="#AAAAFF" transform="translate(0,0)"/>
<path d="" fill="#AAAAFF" transform="translate(0,0)"/>
<path d="" fill="#BFBFBF" transform="translate(0,0)"/>
<path d="" fill="#AAAAAA" transform="translate(0,0)"/>
<path d="" fill="#AAAAFF" transform="translate(0,0)"/>
<path d="" fill="#8080FF" transform="translate(0,0)"/>
<path d="" fill="#AAAAAA" transform="translate(0,0)"/>
<path d="" fill="#BFBFBF" transform="translate(0,0)"/>
<path d="" fill="#FFAAFF" transform="translate(0,0)"/>
<path d="" fill="#FFFFFF" transform="translate(0,0)"/>
<path d="" fill="#AAAAFF" transform="translate(0,0)"/>
<path d="" fill="#CC99CC" transform="translate(0,0)"/>
<path d="" fill="#AAAAFF" transform="translate(0,0)"/>
<path d="" fill="#5555FF" transform="translate(0,0)"/>
<path d="" fill="#BFBFFF" transform="translate(0,0)"/>
<path d="" fill="#BF80BF" transform="translate(0,0)"/>
<path d="" fill="#8080FF" transform="translate(0,0)"/>
<path d="" fill="#BFBFBF" transform="translate(0,0)"/>
<path d="" fill="#AAAAAA" transform="translate(0,0)"/>
<path d="" fill="#8080FF" transform="translate(0,0)"/>
<path d="" fill="#8080BF" transform="translate(0,0)"/>
<path d="" fill="#BFBFFF" transform="translate(0,0)"/>
<path d="" fill="#8080FF" transform="translate(0,0)"/>
<path d="" fill="#808080" transform="translate(0,0)"/>
<path d="" fill="#8080FF" transform="translate(0,0)"/>
<path d="" fill="#AAAAFF" transform="translate(0,0)"/>
<path d="" fill="#AAAAFF" transform="translate(0,0)"/>
<path d="" fill="#FFAAFF" transform="translate(0,0)"/>
<path d="" fill="#AAAAFF" transform="translate(0,0)"/>
</svg>
